<mxfile host="app.diagrams.net" modified="2024-01-07T19:28:25.754Z" agent="Mozilla/5.0 (Macintosh; Intel Mac OS X 10_15_7) AppleWebKit/537.36 (KHTML, like Gecko) Chrome/120.0.0.0 Safari/537.36" version="22.1.17" etag="-KsYcRwKGLYxz7ZkyMlJ" type="github">
  <diagram name="PÃ¡gina-1" id="BBM7HmE_G74GKGTS61Dw">
    <mxGraphModel>
      <root>
        <mxCell id="0" />
        <mxCell id="1" parent="0" />
      </root>
    </mxGraphModel>
  </diagram>
</mxfile>
